<svg width="67" height="12" viewBox="0 0 67 12" fill="none" xmlns="http://www.w3.org/2000/svg">
<path d="M5.53975 0.326782L3.84641 3.96508L0 4.55219L2.78639 7.41965L2.12032 11.4071L5.53975 9.48819L8.9599 11.4071L8.29874 7.41965L11.0803 4.55219L7.25517 3.96508L5.53975 0.326782Z" fill="#0B76E0"/>
<path d="M19.3547 0.326782L17.6614 3.96508L13.8149 4.55219L16.6013 7.41965L15.9353 11.4071L19.3547 9.48819L22.7748 11.4071L22.1137 7.41965L24.8952 4.55219L21.0701 3.96508L19.3547 0.326782Z" fill="#0B76E0"/>
<path d="M33.1696 0.326782L31.4763 3.96508L27.6299 4.55219L30.4163 7.41965L29.7502 11.4071L33.1696 9.48819L36.5898 11.4071L35.9286 7.41965L38.7102 4.55219L34.8851 3.96508L33.1696 0.326782Z" fill="#0B76E0"/>
<path d="M46.9848 0.326782L45.2915 3.96508L41.4451 4.55219L44.2315 7.41965L43.5654 11.4071L46.9848 9.48819L50.405 11.4071L49.7438 7.41965L52.5254 4.55219L48.7002 3.96508L46.9848 0.326782Z" fill="#0B76E0"/>
<path fill-rule="evenodd" clip-rule="evenodd" d="M61.146 0.551944C61.0806 0.413683 60.946 0.326388 60.7988 0.326784C60.6516 0.327181 60.5174 0.4152 60.4527 0.553812L58.9672 3.73376L55.5911 4.24721C55.4456 4.26934 55.3246 4.37615 55.279 4.52278C55.2335 4.6694 55.2712 4.83045 55.3763 4.93825L57.8225 7.44642L57.2383 10.9315C57.2127 11.0842 57.2723 11.2388 57.392 11.3298C57.5116 11.4209 57.6703 11.4323 57.8008 11.3594L60.7998 9.68259L63.7995 11.3594C63.9299 11.4323 64.0885 11.4209 64.2081 11.33C64.3277 11.2391 64.3875 11.0846 64.3621 10.932L63.782 7.44643L66.2242 4.93801C66.3292 4.83019 66.3668 4.66927 66.3213 4.52276C66.2757 4.37625 66.1549 4.26949 66.0095 4.24725L62.6517 3.73375L61.146 0.551944ZM60.7757 8.81862C60.8462 8.81403 60.9175 8.82965 60.9816 8.86548L63.4644 10.2534L62.9855 7.37573C62.9636 7.24421 63.0049 7.10983 63.0958 7.01641L65.1258 4.93143L62.3398 4.50537C62.2142 4.48618 62.1057 4.40362 62.0493 4.28445L60.8287 1.70518L60.7757 8.81862Z" fill="#0B76E0"/>
</svg>
