<svg width="16" height="18" viewBox="0 0 16 18" fill="none" xmlns="http://www.w3.org/2000/svg">
<path d="M14.4802 8.14596C14.0896 7.26689 13.5219 6.47789 12.8124 5.82831L12.2269 5.29114C12.2071 5.2734 12.1831 5.26082 12.1573 5.25448C12.1314 5.24815 12.1043 5.24827 12.0785 5.25482C12.0527 5.26138 12.0289 5.27417 12.0092 5.29208C11.9894 5.30999 11.9744 5.33246 11.9654 5.35753L11.7039 6.10795C11.5409 6.57873 11.2411 7.05956 10.8166 7.53234C10.7885 7.56252 10.7563 7.57057 10.7342 7.57258C10.712 7.57459 10.6778 7.57057 10.6476 7.5424C10.6195 7.51826 10.6054 7.48205 10.6074 7.44583C10.6818 6.2347 10.3197 4.86865 9.52704 3.3819C8.87118 2.14662 7.95981 1.18294 6.8211 0.510986L5.99021 0.0221065C5.88157 -0.0422727 5.74275 0.0422249 5.74879 0.168971L5.79305 1.13466C5.82323 1.79455 5.74678 2.37798 5.56571 2.86284C5.34441 3.45633 5.02653 4.00758 4.62014 4.5025C4.33732 4.84645 4.01677 5.15755 3.66451 5.42996C2.81612 6.08213 2.12628 6.91779 1.64662 7.87436C1.16815 8.83927 0.918919 9.90162 0.918335 10.9786C0.918335 11.9282 1.10544 12.8477 1.47562 13.7148C1.83306 14.5496 2.34888 15.3073 2.99456 15.9459C3.6464 16.5897 4.40286 17.0967 5.24583 17.4488C6.11897 17.8149 7.04442 18 8.00005 18C8.95568 18 9.88113 17.8149 10.7543 17.4508C11.5952 17.1008 12.3598 16.5903 13.0055 15.9479C13.6574 15.3041 14.1684 14.5517 14.5245 13.7168C14.8941 12.852 15.0837 11.9211 15.0818 10.9807C15.0818 9.99887 14.8806 9.04526 14.4802 8.14596ZM12.0439 14.9722C10.9635 16.0425 9.52905 16.6299 8.00005 16.6299C6.47104 16.6299 5.03659 16.0425 3.95623 14.9722C2.87989 13.9039 2.28639 12.4875 2.28639 10.9807C2.28639 10.1055 2.48355 9.26656 2.87184 8.48596C3.25007 7.72347 3.81339 7.04145 4.49742 6.51636C4.93366 6.18278 5.32934 5.79926 5.67636 5.37363C6.17932 4.76001 6.57365 4.07598 6.84726 3.34166C6.95949 3.03875 7.04104 2.72534 7.09069 2.40615C7.57555 2.85278 7.98194 3.39196 8.32194 4.02368C8.9939 5.28309 9.30373 6.4037 9.24337 7.35731C9.22895 7.58191 9.26563 7.80685 9.35066 8.01523C9.43568 8.22361 9.56684 8.41 9.73426 8.5604C9.87936 8.69146 10.049 8.79239 10.2335 8.85732C10.4179 8.92225 10.6134 8.94989 10.8086 8.93863C11.2049 8.91851 11.5691 8.74348 11.8346 8.44774C12.1022 8.14797 12.3336 7.84217 12.5267 7.53033C12.8084 7.89045 13.0438 8.28276 13.2309 8.70525C13.5507 9.42549 13.7137 10.192 13.7137 10.9807C13.7137 12.4875 13.1202 13.9059 12.0439 14.9722Z" fill="#0B76E0"/>
</svg>
