<svg width="18" height="18" viewBox="0 0 18 18" fill="none" xmlns="http://www.w3.org/2000/svg">
<path fill-rule="evenodd" clip-rule="evenodd" d="M3.375 0.666626C3.375 0.321448 3.65482 0.041626 4 0.041626H14C14.3452 0.041626 14.625 0.321448 14.625 0.666626V6.3529C14.625 9.52352 12.1236 12.125 9 12.125C5.87644 12.125 3.375 9.52352 3.375 6.3529V0.666626ZM4.625 1.29163V6.3529C4.625 8.86757 6.60071 10.875 9 10.875C11.3993 10.875 13.375 8.86757 13.375 6.3529V1.29163H4.625Z" fill="white"/>
<path fill-rule="evenodd" clip-rule="evenodd" d="M0.0416565 3.58325C0.0416565 3.23807 0.321479 2.95825 0.666656 2.95825H3.99999C4.34517 2.95825 4.62499 3.23807 4.62499 3.58325V7.74992C4.62499 8.0951 4.34517 8.37492 3.99999 8.37492C1.92783 8.37492 0.0416565 6.64264 0.0416565 3.58325ZM1.3241 4.20825C1.50522 5.88905 2.41754 6.77613 3.37499 7.03968V4.20825H1.3241Z" fill="white"/>
<path fill-rule="evenodd" clip-rule="evenodd" d="M13.375 3.58325C13.375 3.23807 13.6548 2.95825 14 2.95825H17.3333C17.6785 2.95825 17.9583 3.23807 17.9583 3.58325C17.9583 6.64264 16.0722 8.37492 14 8.37492C13.6548 8.37492 13.375 8.0951 13.375 7.74992V3.58325ZM14.625 4.20825V7.03968C15.5824 6.77613 16.4948 5.88905 16.6759 4.20825H14.625Z" fill="white"/>
<path fill-rule="evenodd" clip-rule="evenodd" d="M9 11.7083C9.34518 11.7083 9.625 11.9881 9.625 12.3333V13.9999C9.625 14.3451 9.34518 14.6249 9 14.6249C8.65482 14.6249 8.375 14.3451 8.375 13.9999V12.3333C8.375 11.9881 8.65482 11.7083 9 11.7083Z" fill="white"/>
<path fill-rule="evenodd" clip-rule="evenodd" d="M6.25514 13.6726C6.36887 13.4877 6.57042 13.375 6.78752 13.375H11.101C11.3111 13.375 11.5071 13.4805 11.6228 13.6559L13.2717 16.1559C13.3983 16.3478 13.4093 16.5938 13.3003 16.7963C13.1913 16.9987 12.9799 17.125 12.75 17.125H5.25C5.0236 17.125 4.81491 17.0026 4.70445 16.805C4.59398 16.6073 4.59902 16.3654 4.71762 16.1726L6.25514 13.6726ZM7.13687 14.625L6.36812 15.875H11.5891L10.7646 14.625H7.13687Z" fill="white"/>
</svg>
