<svg width="11" height="11" viewBox="0 0 11 11" fill="none" xmlns="http://www.w3.org/2000/svg">
<g clip-path="url(#clip0_1_16275)">
<path fill-rule="evenodd" clip-rule="evenodd" d="M2.70885 1.85161C3.5274 1.03308 4.6591 0.526245 5.90858 0.526245C7.15805 0.526245 8.28975 1.03308 9.10829 1.85161L8.88506 2.07485L9.10829 1.85161C9.92683 2.67016 10.4337 3.80186 10.4337 5.05134C10.4337 6.30081 9.92683 7.43252 9.10829 8.25105C8.28975 9.06959 7.15805 9.57643 5.90858 9.57643C4.6591 9.57643 3.5274 9.06959 2.70885 8.25105L2.93209 8.02782L2.70885 8.25105C1.89032 7.43252 1.38348 6.30081 1.38348 5.05134C1.38348 3.80186 1.89032 2.67016 2.70885 1.85161L2.70885 1.85161ZM5.90858 1.15765C4.83329 1.15765 3.8603 1.59312 3.15532 2.29809C2.45036 3.00306 2.01489 3.97605 2.01489 5.05134C2.01489 6.12662 2.45036 7.09961 3.15533 7.80458C3.8603 8.50955 4.83329 8.94502 5.90858 8.94502C6.98386 8.94502 7.95685 8.50955 8.66182 7.80458C9.36679 7.09961 9.80226 6.12662 9.80226 5.05134C9.80226 3.97605 9.36679 3.00306 8.66182 2.29809C7.95685 1.59312 6.98386 1.15765 5.90858 1.15765Z" fill="#626E79"/>
<path fill-rule="evenodd" clip-rule="evenodd" d="M5.90874 2.31506C6.19934 2.31506 6.43492 2.55064 6.43492 2.84124C6.43492 3.13183 6.19934 3.36741 5.90874 3.36741C5.61815 3.36741 5.38257 3.13183 5.38257 2.84124C5.38257 2.55064 5.61815 2.31506 5.90874 2.31506Z" fill="#626E79"/>
<path fill-rule="evenodd" clip-rule="evenodd" d="M5.27728 4.20938C5.27728 4.03502 5.41863 3.89368 5.59299 3.89368H6.01393C6.18828 3.89368 6.32963 4.03502 6.32963 4.20938V7.15595C6.32963 7.33031 6.18828 7.47166 6.01393 7.47166C5.83957 7.47166 5.69822 7.33031 5.69822 7.15595V4.52508H5.59299C5.41863 4.52508 5.27728 4.38374 5.27728 4.20938Z" fill="#626E79"/>
<path fill-rule="evenodd" clip-rule="evenodd" d="M4.96155 7.15604C4.96155 6.98168 5.10289 6.84033 5.27725 6.84033H6.75054C6.9249 6.84033 7.06624 6.98168 7.06624 7.15604C7.06624 7.33039 6.9249 7.47174 6.75054 7.47174H5.27725C5.10289 7.47174 4.96155 7.33039 4.96155 7.15604Z" fill="#626E79"/>
</g>
<defs>
<clipPath id="clip0_1_16275">
<rect width="10.1025" height="10.1025" fill="white" transform="translate(0.857422)"/>
</clipPath>
</defs>
</svg>
